<svg xmlns="http://www.w3.org/2000/svg" width="1875" height="1625" viewBox="0 0 1875 1625">
  <defs>
    <style>
      .cls-1 {
        fill-rule: evenodd;
      }
    </style>
  </defs>
  <path class="cls-1" d="M360,188H1572V1320H360V188ZM896,428l234-2a34.332,34.332,0,0,1,14,0c15.17,3.242,26.04,16.825,31,32l198,627-241,3a39.563,39.563,0,0,1-17-2c-14.28-5.05-24-18.14-28-33ZM558,579l252-6a23.981,23.981,0,0,1,14,2c8.223,3.98,13.228,12.605,14,22l123,414-228,3a41.08,41.08,0,0,1-23,0,41.622,41.622,0,0,1-24-19Z"/>
</svg>
