<?xml version="1.0" encoding="UTF-8"?> <svg xmlns="http://www.w3.org/2000/svg" width="109" height="67" viewBox="0 0 109 67" fill="none"><g clip-path="url(#clip0)"><path d="M86.0916 40C85.7524 39.9368 85.4094 39.8897 85.0813 39.7788C83.8916 39.3807 83.0036 38.6442 82.3668 37.6334C81.822 36.7686 81.5335 35.834 81.5913 34.8232C81.6628 33.5701 82.1015 32.4424 82.9643 31.474C83.7311 30.613 84.7108 30.098 85.9001 29.989C87.2772 29.8626 88.537 30.1766 89.6075 31.0253C90.8263 31.9919 91.4148 33.2516 91.5058 34.7328C91.5175 34.9265 91.5323 35.1199 91.5306 35.3142C91.5283 35.5935 91.5306 35.5938 91.2398 35.5938C88.577 35.5938 85.9142 35.5938 83.2515 35.5938C82.9136 35.5938 82.9132 35.5585 83.0106 35.8915C83.3163 36.9389 83.9054 37.798 84.9157 38.3674C86.3354 39.1677 88.3715 38.7933 89.3414 37.5582C89.4788 37.3835 89.5766 37.1882 89.6652 36.9895C89.7102 36.8887 89.7606 36.8508 89.8792 36.882C90.1859 36.9629 90.4943 37.0385 90.8042 37.1089C90.9365 37.1389 90.9536 37.1904 90.909 37.3095C90.3245 38.8609 89.0617 39.6161 87.4263 39.9393C87.3175 39.9608 87.208 39.9794 87.0989 39.9993L86.0916 40ZM86.5346 34.3856H87.475C88.3029 34.3856 89.1309 34.3831 89.9584 34.3881C90.1015 34.3881 90.1549 34.3527 90.1143 34.2172C90.0736 34.0816 90.0518 33.9502 90.0082 33.8203C89.5625 32.4933 88.6892 31.5631 87.1973 31.2572C86.0412 31.02 85.0141 31.2778 84.1543 32.063C83.5192 32.6434 83.1641 33.3625 82.9717 34.1625C82.92 34.3771 82.9263 34.3853 83.1621 34.3856C84.2871 34.386 85.4112 34.386 86.5346 34.3856Z" fill="#163D5D"></path><path d="M35.0928 39.9999C34.6226 39.9203 34.1655 39.804 33.7527 39.5692C32.5876 38.9057 32.0042 37.9338 32.0717 36.656C32.1224 35.6965 32.6762 35.0064 33.5431 34.5328C34.2484 34.1492 35.0176 33.9678 35.827 33.9046C36.8799 33.8225 37.9141 33.9312 38.9358 34.1634C39.0879 34.1982 39.1158 34.1593 39.1199 34.0257C39.137 33.4503 39.0715 32.8917 38.7709 32.3779C38.3628 31.6809 37.7236 31.3096 36.89 31.2114C36.0013 31.1068 35.2174 31.3975 34.456 31.7719C34.1162 31.9443 33.7915 32.1419 33.485 32.3627C33.392 32.4278 33.3298 32.4392 33.2529 32.3387C33.0541 32.0784 32.8458 31.8247 32.6403 31.5687C32.5892 31.5055 32.5506 31.4515 32.648 31.3874C33.5041 30.824 34.3898 30.3131 35.4196 30.079C36.5505 29.8227 37.6457 29.909 38.6611 30.472C39.6062 30.9965 40.1147 31.8136 40.338 32.8022C40.4113 33.1365 40.4466 33.4771 40.4432 33.8184C40.4408 35.3416 40.4432 36.8649 40.4401 38.3882C40.4401 38.5237 40.4448 38.6292 40.6366 38.6122C40.7146 38.6052 40.7374 38.664 40.7374 38.7288C40.7374 39.0702 40.7374 39.4117 40.7374 39.7531C40.7374 39.8185 40.7146 39.871 40.6333 39.8669C40.4438 39.8574 40.2517 39.8587 40.066 39.8286C39.6314 39.7579 39.3382 39.5127 39.1971 39.1253C39.1413 38.9714 39.0963 38.9838 38.9751 39.065C38.1932 39.5901 37.3139 39.8748 36.3637 39.979C36.331 39.9843 36.2986 39.9912 36.2667 39.9999H35.0928ZM39.1155 36.3158C39.1155 36.1161 39.1037 35.9157 39.1192 35.7173C39.1316 35.5555 39.0658 35.4879 38.9032 35.4437C37.9956 35.1914 37.0494 35.0846 36.1041 35.1277C35.5106 35.1571 34.9302 35.2649 34.3845 35.5037C33.5498 35.8687 33.2039 36.5578 33.4625 37.3844C33.7624 38.3439 34.7774 38.8062 35.6927 38.7812C36.2072 38.7719 36.7176 38.6918 37.2074 38.5433C37.8741 38.336 38.4659 38.0261 38.8834 37.4741C39.0392 37.2674 39.1427 37.0497 39.1185 36.7866C39.1034 36.6314 39.1155 36.4731 39.1155 36.3158Z" fill="#163D5D"></path><path d="M57.4191 40C57.1001 39.9251 56.7729 39.8783 56.468 39.7529C55.3801 39.3048 54.668 38.557 54.4306 37.4533C54.1525 36.1578 54.746 35.0577 56.03 34.4425C56.7017 34.1202 57.4235 33.9666 58.1728 33.9117C59.214 33.8349 60.2371 33.9499 61.249 34.1755C61.3397 34.1957 61.4398 34.2251 61.4391 34.0864C61.4358 33.4399 61.3793 32.8017 60.9914 32.2399C60.4114 31.4001 59.5472 31.1062 58.5308 31.1972C57.5434 31.2847 56.7051 31.7325 55.9111 32.2608C55.5823 32.4797 55.6629 32.4551 55.4456 32.1935C55.2776 31.9906 55.1178 31.7808 54.9502 31.5773C54.883 31.4964 54.8726 31.4424 54.9767 31.3751C55.6837 30.9182 56.4068 30.4885 57.2247 30.2266C58.4234 29.8427 59.6144 29.8345 60.7607 30.3827C61.8176 30.8882 62.3859 31.7448 62.6217 32.8156C62.6928 33.145 62.7277 33.4804 62.7258 33.8166C62.7238 35.3395 62.7231 36.8626 62.7238 38.3857C62.7238 38.5149 62.7174 38.6318 62.9142 38.6217C62.9999 38.6173 63.0227 38.6849 63.0227 38.7535C63.0227 39.0739 63.0227 39.3942 63.0227 39.7143C63.0227 39.774 63.0143 39.8391 62.9327 39.8439C62.4736 39.8692 62.0339 39.8338 61.7065 39.4729C61.6034 39.3614 61.5279 39.2298 61.4855 39.0875C61.4546 38.9829 61.4112 38.9645 61.3108 39.0325C60.546 39.5522 59.6849 39.8401 58.7555 39.9633C58.6679 39.975 58.5752 39.9598 58.4922 40.0015L57.4191 40ZM61.4415 36.2716C61.4415 36.0931 61.4284 35.9133 61.4452 35.7364C61.462 35.5594 61.3807 35.4877 61.2101 35.44C60.1568 35.1487 59.085 35.0371 57.9935 35.1556C57.4413 35.2163 56.9059 35.3452 56.424 35.6273C55.8375 35.9692 55.5658 36.5244 55.6941 37.1626C55.857 37.9753 56.4078 38.4546 57.222 38.6982C57.6992 38.8407 58.1839 38.8056 58.6662 38.7336C59.5687 38.5993 60.4023 38.3269 61.0331 37.6618C61.294 37.3866 61.4697 37.0811 61.4431 36.6956C61.4331 36.556 61.4415 36.4135 61.4415 36.2719V36.2716Z" fill="#163D5D"></path><path d="M10.6163 39.9999C10.0675 39.9231 9.53182 39.804 9.02063 39.5929C8.25921 39.2789 7.62644 38.803 7.05345 38.2476C6.97452 38.1708 6.98627 38.1212 7.06722 38.0555C7.31475 37.8586 7.56229 37.6614 7.80109 37.4551C7.90655 37.3638 7.97675 37.3657 8.07919 37.4611C8.52724 37.8788 9.02398 38.2378 9.61209 38.4634C10.8101 38.9228 12.0018 38.9089 13.1612 38.3531C13.6314 38.1284 13.9314 37.7607 13.9616 37.2456C13.9982 36.621 13.6929 36.1714 13.0729 35.9158C12.4814 35.6718 11.855 35.6232 11.2189 35.6178C10.5827 35.6124 9.95669 35.5609 9.35078 35.3701C8.44394 35.0841 7.73627 34.5783 7.45716 33.686C7.01885 32.285 7.50721 30.9804 9.03843 30.351C10.31 29.8284 11.6209 29.8054 12.9345 30.2145C13.5119 30.3946 13.9757 30.7409 14.3451 31.1918C14.499 31.3785 14.6367 31.5769 14.7818 31.7691C14.8311 31.8322 14.8325 31.8793 14.7448 31.9153C14.391 32.0601 14.0382 32.2066 13.6862 32.3548C13.6166 32.3842 13.5683 32.3725 13.5347 32.3081C13.5273 32.2942 13.5176 32.2809 13.5115 32.2664C13.263 31.6319 12.7152 31.3779 12.0599 31.266C11.2182 31.1226 10.3879 31.1488 9.59059 31.4664C9.00887 31.698 8.65016 32.0901 8.63236 32.7141C8.61456 33.3691 8.91852 33.8307 9.54995 34.1043C9.88918 34.2516 10.2502 34.3148 10.6197 34.3495C11.1645 34.401 11.7146 34.3584 12.2587 34.4408C13.0547 34.5615 13.8088 34.7723 14.4271 35.2867C15.1082 35.8535 15.3581 36.5837 15.2698 37.4144C15.1398 38.6371 14.3129 39.3168 13.1605 39.7253C12.7508 39.8707 12.3209 39.9354 11.8896 39.9993L10.6163 39.9999Z" fill="#163D5D"></path><path d="M67.5594 40C67.3397 39.9624 67.1191 39.9308 66.9011 39.8866C65.8955 39.6825 65.034 39.2265 64.2941 38.5614C64.1768 38.4562 64.066 38.3447 63.9491 38.2391C63.8867 38.1826 63.8638 38.1368 63.9441 38.0729C64.2085 37.8623 64.4706 37.6494 64.7304 37.4344C64.8311 37.3506 64.8906 37.4167 64.9557 37.4764C65.3017 37.7924 65.6738 38.0783 66.0997 38.2954C67.3028 38.9083 68.5435 38.9494 69.8053 38.4805C70.1627 38.3475 70.4744 38.1377 70.6705 37.811C71.0736 37.1393 70.8244 36.3449 70.0962 35.9753C69.623 35.7351 69.1057 35.6593 68.5781 35.6204C67.9769 35.5768 67.3689 35.617 66.7741 35.4959C66.1793 35.3749 65.611 35.1847 65.1374 34.8078C64.5446 34.3363 64.2561 33.7205 64.2027 33.003C64.152 32.318 64.3105 31.6864 64.7851 31.1464C65.2086 30.6645 65.7632 30.3653 66.3889 30.1846C67.3629 29.904 68.3507 29.8923 69.3408 30.0898C70.1956 30.2598 70.8603 30.7069 71.3607 31.3742C71.4541 31.499 71.5428 31.627 71.6388 31.7492C71.6979 31.8251 71.702 31.8731 71.5975 31.9158C71.259 32.0538 70.9224 32.1963 70.5866 32.3401C70.5029 32.3761 70.4478 32.3606 70.4122 32.2813C70.4082 32.2715 70.4012 32.263 70.3975 32.2532C70.1459 31.6295 69.6075 31.372 68.9569 31.2598C68.1263 31.1164 67.3068 31.1397 66.5155 31.438C65.9475 31.6522 65.5563 32.0162 65.5049 32.6222C65.4447 33.3303 65.7702 33.8264 66.3993 34.1022C66.8846 34.3149 67.4069 34.3837 67.9355 34.3841C68.701 34.3841 69.455 34.4454 70.1815 34.6902C70.8818 34.9263 71.4753 35.2962 71.837 35.926C72.4684 37.0255 72.2091 38.5845 70.8102 39.3731C70.2057 39.715 69.5437 39.8945 68.8471 39.9735C68.7981 39.9791 68.7497 39.9921 68.7007 40.0016L67.5594 40Z" fill="#163D5D"></path><path d="M76.3904 40C76.1241 39.9425 75.8514 39.9166 75.5844 39.854C74.4666 39.5914 73.5621 39.0078 72.7799 38.234C72.7127 38.1661 72.7228 38.1219 72.7913 38.0666C73.0502 37.8584 73.3089 37.6495 73.5638 37.4369C73.6518 37.3636 73.7099 37.4031 73.7781 37.4615C74.1139 37.7478 74.4498 38.0344 74.8481 38.2435C76.1436 38.9222 77.4713 38.9921 78.8191 38.398C79.2752 38.1971 79.5953 37.8663 79.6789 37.3772C79.7894 36.7317 79.4714 36.1857 78.8342 35.9206C78.3781 35.731 77.8965 35.6498 77.4017 35.6194C76.7559 35.58 76.104 35.6141 75.4675 35.4643C74.693 35.2823 74.0028 34.9755 73.5285 34.3401C73.2494 33.9657 73.108 33.5455 73.0607 33.0921C73.0059 32.5691 73.0704 32.069 73.3233 31.5922C73.5688 31.1287 73.944 30.7849 74.4118 30.529C75.1037 30.1498 75.8584 29.9811 76.6568 29.97C77.2174 29.9624 77.7735 29.9789 78.3207 30.1185C79.0932 30.3154 79.7021 30.7233 80.168 31.3268C80.2764 31.4667 80.3765 31.6127 80.4843 31.7533C80.5451 31.8323 80.5351 31.8797 80.4356 31.9208C80.1068 32.0535 79.7797 32.1903 79.4532 32.3274C79.374 32.3606 79.3007 32.3818 79.2611 32.2835C78.9702 31.56 78.3274 31.322 77.5905 31.2241C76.8251 31.122 76.0717 31.166 75.3476 31.4418C74.6577 31.7044 74.3306 32.1647 74.3427 32.839C74.3534 33.4504 74.7356 33.9316 75.3953 34.166C75.8463 34.3259 76.3172 34.3847 76.7945 34.3844C77.5035 34.3844 78.2051 34.4387 78.8806 34.645C79.6531 34.8807 80.3224 35.258 80.704 35.9654C81.3119 37.0918 81.0489 38.6868 79.4814 39.4663C78.9153 39.7456 78.2965 39.9182 77.66 39.9744C77.6162 39.9807 77.5728 39.9896 77.53 40.0009L76.3904 40Z" fill="#163D5D"></path><path d="M17.8084 31.2825C18.1141 31.0402 18.3928 30.7975 18.7153 30.6051C19.8488 29.9264 21.0526 29.7302 22.3302 30.1871C23.0866 30.4579 23.6125 30.977 23.9655 31.6529C24.0465 31.8083 24.0438 31.8108 24.16 31.6683C24.7508 30.9498 25.4601 30.3795 26.4043 30.1138C27.2413 29.8781 28.0836 29.8664 28.9072 30.1561C29.8785 30.4971 30.4058 31.2146 30.7087 32.1053C30.9074 32.7027 31.0072 33.3252 31.0046 33.9512C31.0127 35.8469 31.0087 37.7427 31.0087 39.6385C31.0087 39.8483 31.0087 39.8489 30.7867 39.8493C30.4901 39.8493 30.1932 39.8423 29.8973 39.8524C29.7344 39.8578 29.684 39.8031 29.6847 39.6537C29.6894 38.5823 29.6901 37.5108 29.6867 36.4391C29.6867 35.562 29.6927 34.6845 29.6733 33.8077C29.6622 33.3145 29.5893 32.8251 29.415 32.3543C29.1305 31.5843 28.5716 31.1969 27.7021 31.1852C26.5544 31.1682 25.707 31.6791 25.0625 32.5312C24.7746 32.9104 24.5862 33.3382 24.4418 33.7824C24.4119 33.875 24.4179 33.9698 24.4179 34.064C24.4179 35.8866 24.4179 37.7093 24.4179 39.532C24.4179 39.8998 24.4243 39.848 24.0868 39.8505C23.8517 39.8524 23.6166 39.8505 23.3815 39.8505C23.0953 39.8505 23.0953 39.8505 23.0953 39.5889C23.0953 37.8511 23.1054 36.1117 23.0903 34.3733C23.0842 33.6763 23.0456 32.977 22.788 32.3088C22.4467 31.4219 21.769 31.1081 20.7614 31.201C19.4196 31.3274 18.6229 32.129 18.06 33.1973C17.8732 33.5515 17.7983 33.9205 17.8017 34.3208C17.8161 36.0858 17.8081 37.8508 17.8077 39.6154C17.8077 39.8499 17.8077 39.8502 17.5565 39.8505C17.2542 39.8505 16.952 39.8474 16.6497 39.8505C16.5288 39.8524 16.471 39.812 16.4817 39.6951C16.4854 39.6534 16.4817 39.611 16.4817 39.5687C16.4817 36.5013 16.4817 33.4338 16.4817 30.3662C16.4817 30.3138 16.4834 30.2613 16.4817 30.2083C16.4817 30.1331 16.5116 30.0895 16.599 30.0898C16.9627 30.0898 17.3264 30.0898 17.6899 30.0898C17.8061 30.0898 17.8054 30.1681 17.8057 30.2437C17.8057 30.5324 17.8057 30.8212 17.8057 31.1103L17.8084 31.2825Z" fill="#163D5D"></path><path d="M49.1584 34.7982C49.1584 33.7164 49.1584 32.6344 49.1584 31.5523C49.1584 31.3343 49.1584 31.3334 48.9233 31.3331C48.6099 31.3331 48.2966 31.3302 47.9829 31.3331C47.8579 31.3347 47.8001 31.2961 47.8028 31.1694C47.8095 30.8648 47.8089 30.5599 47.8028 30.2556C47.8005 30.1353 47.8418 30.0866 47.9761 30.0891C48.306 30.0961 48.6365 30.0853 48.9663 30.0939C49.1137 30.0976 49.1597 30.0509 49.1591 29.9138C49.154 29.0209 49.1564 28.1279 49.1567 27.2353C49.1567 27.0028 49.1567 27.0025 49.4096 27.0025C49.7005 27.0025 49.9917 27.0094 50.2829 26.9996C50.4394 26.9943 50.4827 27.047 50.4817 27.1892C50.4763 28.0922 50.4817 28.9956 50.4757 29.8989C50.4757 30.0503 50.5203 30.0967 50.6829 30.0945C51.3093 30.0866 51.936 30.0945 52.5637 30.0885C52.7189 30.0885 52.769 30.1349 52.7653 30.2781C52.7562 30.5665 52.7549 30.856 52.7653 31.1444C52.7706 31.2933 52.7088 31.334 52.5604 31.334C51.9451 31.3293 51.3298 31.3321 50.7131 31.334C50.48 31.334 50.478 31.334 50.478 31.5495C50.478 33.6665 50.4877 35.7834 50.4723 37.9004C50.4673 38.5851 51.0023 38.7418 51.4678 38.6922C51.8984 38.6463 52.2843 38.4887 52.6588 38.2918C52.9574 38.1339 52.9634 38.143 53.1569 38.4009C53.2889 38.5772 53.4138 38.7579 53.5495 38.9314C53.6147 39.0151 53.6086 39.0707 53.5307 39.1465C53.0827 39.5841 52.5073 39.7715 51.896 39.8856C51.3452 39.9882 50.8021 39.9668 50.2899 39.732C49.5315 39.3844 49.1607 38.8015 49.1574 38.0144C49.155 36.9408 49.1584 35.8694 49.1584 34.7982Z" fill="#163D5D"></path><path d="M93.2372 34.8873C93.2372 33.7686 93.2372 32.6498 93.2372 31.5308C93.2372 31.3128 93.2311 31.3075 93.0041 31.3071C92.6853 31.3071 92.3659 31.3024 92.0475 31.3071C91.9095 31.3097 91.8584 31.262 91.8615 31.1324C91.8682 30.8436 91.8682 30.5547 91.8615 30.2657C91.8581 30.1314 91.9182 30.0935 92.0516 30.0961C92.3646 30.1018 92.6783 30.098 92.992 30.0976C93.2375 30.0976 93.2378 30.0976 93.2378 29.8597C93.2378 28.9822 93.2378 28.105 93.2378 27.2281C93.2378 27.0116 93.2412 27.0094 93.4729 27.0088H94.279C94.5232 27.0088 94.5239 27.0088 94.5242 27.2334C94.5242 28.1158 94.5242 28.9983 94.5242 29.8809C94.5242 30.0967 94.5242 30.0973 94.7593 30.0976C95.3746 30.0976 95.9903 30.1014 96.6066 30.0951C96.7618 30.0935 96.8135 30.1447 96.8081 30.2872C96.7997 30.5599 96.799 30.8335 96.8081 31.1065C96.8131 31.2547 96.7614 31.31 96.5979 31.3081C95.9883 31.3011 95.3783 31.3053 94.7684 31.3056C94.5256 31.3056 94.5249 31.3056 94.5249 31.5302C94.5249 33.6731 94.5249 35.8162 94.5249 37.9594C94.5249 38.4233 94.8023 38.6912 95.3017 38.7032C95.7508 38.714 96.1582 38.5768 96.5485 38.3803C97.1289 38.0874 96.9465 38.0959 97.2968 38.5351C97.3939 38.6571 97.4765 38.7879 97.5746 38.9102C97.6491 39.0028 97.6437 39.0704 97.5551 39.1547C97.1141 39.5737 96.5549 39.7607 95.96 39.8688C95.4358 39.9636 94.9148 39.956 94.4151 39.7516C93.6762 39.4505 93.2217 38.7857 93.2345 38.1007C93.253 37.0308 93.2375 35.9588 93.2372 34.8873Z" fill="#163D5D"></path><path d="M43.4536 31.358C43.5987 31.2354 43.7038 31.1428 43.8126 31.0544C44.608 30.4104 45.5308 30.0896 46.5812 30.0919C46.7155 30.0919 46.8499 30.0951 46.9842 30.0919C47.085 30.0894 47.1229 30.133 47.1223 30.225C47.1202 30.5409 47.1182 30.8553 47.1223 31.1703C47.1243 31.3005 47.044 31.3097 46.9385 31.3119C46.4556 31.3223 45.9793 31.3722 45.5279 31.5454C44.6392 31.8847 44.0501 32.5012 43.6581 33.3075C43.5147 33.6037 43.4431 33.9262 43.4485 34.2516C43.46 36.0321 43.4539 37.8125 43.4539 39.5933C43.4539 39.8517 43.4539 39.8521 43.1768 39.8521C42.8997 39.8521 42.6169 39.8445 42.3372 39.8549C42.1739 39.8609 42.1282 39.8062 42.1289 39.6565C42.1336 38.0451 42.1316 36.4314 42.1316 34.8191C42.1316 33.3166 42.1316 31.8144 42.1316 30.3125C42.1316 30.0932 42.1316 30.0929 42.359 30.0913H43.2322C43.4506 30.0913 43.4529 30.0938 43.4536 30.3065C43.4536 30.5908 43.4536 30.8752 43.4536 31.1577V31.358Z" fill="#163D5D"></path><path d="M100.999 28.9049C100.618 28.9365 100.618 28.9365 100.618 28.5852V27.5614L100.596 27.5545C100.541 27.7027 100.484 27.8502 100.428 27.9984C100.333 28.2566 100.233 28.5131 100.149 28.7741C100.109 28.8973 100.029 28.9169 99.9105 28.9169C99.7919 28.9169 99.7258 28.891 99.6861 28.7779C99.5467 28.3795 99.3969 27.9842 99.225 27.5889V28.11C99.225 28.3147 99.2166 28.5207 99.2277 28.7245C99.2364 28.8825 99.1635 28.9195 99.0097 28.9182C98.8626 28.9182 98.8004 28.8815 98.8028 28.7311C98.8109 28.2114 98.8095 27.6913 98.8028 27.1716C98.8028 27.0395 98.8532 27.0009 98.9889 27.0006C99.4161 27.0006 99.4174 26.9949 99.5615 27.3659C99.674 27.6553 99.7829 27.9463 99.931 28.2401C99.972 28.1349 100.014 28.03 100.054 27.9242C100.155 27.6626 100.256 27.4013 100.352 27.1381C100.388 27.0388 100.447 26.9933 100.561 27.0012C100.706 27.0114 100.851 27.0101 100.998 27.0136L100.999 28.9049Z" fill="#163D5D"></path><path d="M97.635 27.0034C97.8809 27.0034 98.1264 27.0078 98.3719 27.0034C98.511 27 98.5221 27.0755 98.5227 27.1747C98.5234 27.2739 98.5043 27.3497 98.3682 27.3425C98.2514 27.3361 98.1331 27.3475 98.0166 27.3399C97.891 27.3317 97.852 27.3797 97.8537 27.4948C97.8591 27.9087 97.8476 28.3232 97.8594 28.7368C97.8641 28.9084 97.7738 28.9175 97.6334 28.9191C97.493 28.9207 97.4228 28.8875 97.4265 28.7355C97.4362 28.3216 97.4265 27.9074 97.4318 27.4932C97.4318 27.3763 97.3909 27.332 97.2669 27.3399C97.1558 27.3472 97.0432 27.3352 96.9311 27.3428C96.7934 27.3519 96.7598 27.2891 96.7598 27.1734C96.7598 27.0578 96.7934 26.9984 96.9304 27.0028C97.1658 27.0085 97.4006 27.0031 97.635 27.0034Z" fill="#163D5D"></path></g><defs><clipPath id="clip0"><rect width="94" height="13" fill="white" transform="translate(7 27)"></rect></clipPath></defs></svg> 