<?xml version="1.0" encoding="UTF-8"?> <svg xmlns="http://www.w3.org/2000/svg" width="125" height="42" viewBox="0 0 125 42" fill="none"><path fill-rule="evenodd" clip-rule="evenodd" d="M58.1226 29.415C58.1226 29.8566 58.1185 30.2877 58.0702 30.7084C57.9574 31.6803 57.5738 32.0794 56.6047 32.2322C56.4096 32.2631 56.1947 32.2783 55.9472 32.2787C53.9524 32.2822 51.9573 32.2815 49.9609 32.2808H49.6811L49.6808 30.3179C49.6801 28.1998 49.6794 26.0818 49.6852 23.9644C49.6859 23.6045 49.7144 23.2473 49.7699 22.9037C49.9108 22.0269 50.353 21.6138 51.2484 21.5232C51.5597 21.4916 51.9008 21.4791 52.2665 21.4791L53.1026 21.4819C54.2191 21.485 55.374 21.4885 56.5063 21.5232C57.1326 21.542 57.5635 21.7697 57.8233 22.2181C58.0105 22.5409 58.1027 22.92 58.1062 23.3768C58.1223 25.5778 58.1233 27.7597 58.1226 29.415ZM60.2284 22.5506C59.9905 20.9245 59.0557 19.88 57.5244 19.5298C57.0472 19.4208 56.5104 19.3639 55.8341 19.3507C54.5122 19.3253 53.1911 19.3354 52.0742 19.3479C51.4901 19.3548 51.0232 19.3902 50.6043 19.4604C49.0319 19.7228 48.0199 20.6423 47.6781 22.1185C47.599 22.4611 47.5575 22.8082 47.5174 23.1442C47.4995 23.2931 47.4817 23.4427 47.4605 23.5916L47.457 38.9331C47.457 39.2732 47.7302 39.5499 48.0662 39.5499H49.0648C49.4011 39.5499 49.6739 39.2732 49.6739 38.9331V34.4162L51.2909 34.4172C52.801 34.4179 54.312 34.4193 55.8217 34.4113C56.3277 34.4085 56.8049 34.37 57.2402 34.2964C58.8116 34.0319 59.8178 33.0937 60.1503 31.5831C60.2624 31.0728 60.3224 30.4966 60.3285 29.8694C60.3467 27.9683 60.3433 26.0984 60.3313 23.8756C60.3292 23.45 60.2946 23.0043 60.2284 22.5506Z" fill="#163D5D"></path><mask id="mask0" maskUnits="userSpaceOnUse" x="111" y="19" width="14" height="16"><path d="M124.113 19.3328V34.3901H111.247V19.3328H124.113Z" fill="white"></path></mask><g mask="url(#mask0)"><path fill-rule="evenodd" clip-rule="evenodd" d="M121.864 25.2574C121.863 25.4355 121.862 25.6135 121.861 25.7923H113.444C113.448 25.5771 113.451 25.3626 113.455 25.1484C113.466 24.383 113.477 23.6604 113.542 22.9307C113.621 22.0359 114.14 21.5621 115.082 21.5229C116.038 21.483 117.015 21.4816 117.961 21.4805L118.578 21.4791C119.172 21.4771 119.749 21.4798 120.317 21.5239C120.964 21.5742 121.366 21.7912 121.581 22.2067C121.745 22.5239 121.837 22.8207 121.846 23.0661C121.874 23.7902 121.87 24.5031 121.864 25.2574ZM123.957 29.3057C123.851 29.1936 123.702 29.1294 123.549 29.1294H122.495C122.203 29.1294 121.961 29.3515 121.933 29.6462L121.903 29.9715C121.87 30.3581 121.838 30.7236 121.772 31.0805C121.704 31.4484 121.511 31.9177 120.971 32.0687C120.533 32.1916 120.061 32.2617 119.607 32.2717C118.276 32.3023 116.883 32.2874 115.764 32.2766C115.433 32.2731 115.082 32.2395 114.692 32.1732C114.074 32.0676 113.649 31.6345 113.582 31.0419C113.518 30.4664 113.501 29.868 113.485 29.2894C113.479 29.1016 113.474 28.9135 113.467 28.7257C113.458 28.4772 113.46 28.2286 113.463 27.9725C113.463 27.9648 113.463 27.9565 113.463 27.9489H123.609C123.871 27.9489 124.089 27.7326 124.095 27.4657C124.1 27.2075 124.104 26.708 124.104 26.6667L124.106 25.7555C124.109 25.113 124.11 24.6236 124.099 23.7645C124.092 23.2428 124.049 22.7804 123.968 22.3511C123.696 20.9088 122.865 19.9595 121.565 19.6065C121.013 19.4562 120.391 19.3739 119.664 19.3541C118.437 19.3208 117.192 19.3333 115.986 19.3458L115.745 19.3482C115.271 19.3528 114.822 19.3892 114.409 19.4555C112.883 19.7006 111.884 20.5461 111.518 21.9002C111.362 22.4771 111.277 23.1435 111.265 23.8815C111.24 25.4164 111.246 26.9756 111.253 28.4834L111.257 29.4744C111.258 29.9458 111.276 30.421 111.31 30.8868C111.459 32.9132 112.803 34.2707 114.736 34.345C115.596 34.378 116.462 34.3901 117.325 34.3901C118.42 34.3901 119.512 34.3711 120.582 34.3523C121.386 34.3384 122.148 34.0541 122.786 33.5297C123.487 32.9545 123.894 32.1426 124.028 31.0485C124.072 30.6858 124.087 30.3207 124.102 29.9673L124.113 29.7268C124.119 29.5716 124.062 29.4178 123.957 29.3057Z" fill="#163D5D"></path></g><path fill-rule="evenodd" clip-rule="evenodd" d="M81.8087 22.2071C82.0288 21.7881 82.4193 21.5778 83.0757 21.5243C83.6129 21.4802 84.1542 21.4771 84.7085 21.4792L85.1747 21.4802C86.1959 21.4827 87.2517 21.4848 88.2863 21.5209C88.9308 21.5438 89.3699 21.7725 89.6287 22.221C89.8005 22.5195 89.8872 22.8728 89.9098 23.3671C89.9191 23.5681 89.917 23.7698 89.9146 23.9714C89.9129 24.1512 89.9804 24.3206 90.1052 24.4484C90.2307 24.5768 90.3987 24.6476 90.5769 24.6476H91.473C91.8319 24.6476 92.1288 24.3543 92.1353 23.9933C92.1507 23.104 92.0561 22.3904 91.8367 21.7479C91.4761 20.6895 90.7668 19.9728 89.7857 19.6753C89.144 19.4809 88.5746 19.3792 88.045 19.365C86.7231 19.3296 85.38 19.3393 84.0805 19.3497L83.4936 19.3535C83.1463 19.3559 82.7744 19.392 82.3881 19.4601C80.7947 19.7416 79.7872 20.6777 79.4743 22.1668C79.3608 22.709 79.3073 23.3123 79.3066 24.0648C79.3056 25.2228 79.8558 26.0933 80.8982 26.5824C81.2294 26.7382 81.6236 26.9118 82.0343 27.0208C82.9513 27.2651 83.87 27.5015 84.7887 27.7379C85.5967 27.9455 86.4043 28.1534 87.2109 28.3665C87.939 28.5592 88.6504 28.7525 89.3514 29.0031C89.82 29.1704 89.9146 29.5574 89.9115 29.8528C89.9078 30.2294 89.892 30.6703 89.8049 31.0816C89.6925 31.6133 89.4347 31.94 89.0391 32.0531C88.578 32.185 88.0988 32.2607 87.6528 32.2711C86.6069 32.2965 85.5412 32.2899 84.51 32.2829L83.7819 32.2791C83.472 32.2777 83.2032 32.26 82.9599 32.225C82.0888 32.1014 81.6994 31.7116 81.5698 30.8355C81.5249 30.5328 81.5053 30.2249 81.4851 29.899L81.4755 29.7466C81.4526 29.3964 81.1622 29.1218 80.8146 29.1218H79.9305C79.7471 29.1218 79.5709 29.1999 79.4461 29.3353C79.321 29.472 79.2569 29.6571 79.2706 29.8431L79.2878 30.0916C79.3166 30.5231 79.3467 30.9695 79.4245 31.4051C79.6803 32.8359 80.5003 33.7842 81.7954 34.1465C82.3452 34.3007 82.9674 34.3874 83.6444 34.4048C84.2724 34.4208 84.9046 34.426 85.535 34.426C86.234 34.426 86.9305 34.4194 87.6148 34.4128L87.7745 34.411C88.2181 34.4065 88.6514 34.3676 89.0621 34.2951C90.5409 34.033 91.4915 33.2097 91.8874 31.848C92.1339 31.0007 92.1987 30.1315 92.0794 29.2645C91.9605 28.4016 91.4264 27.6518 90.6503 27.2596C90.1508 27.0069 89.6558 26.8132 89.1779 26.683C88.1958 26.4161 87.1941 26.162 86.2257 25.9163C85.5336 25.7406 84.8422 25.5653 84.1518 25.3838C83.3469 25.1731 82.689 24.978 82.0816 24.7712C81.8979 24.7083 81.5825 24.5417 81.5348 24.1283C81.4964 23.7913 81.5043 23.4195 81.5585 23.0224C81.5979 22.7291 81.687 22.4393 81.8087 22.2071Z" fill="#163D5D"></path><path fill-rule="evenodd" clip-rule="evenodd" d="M74.083 27.9027C74.0884 28.7555 74.0936 29.6371 74.0638 30.4994C74.0525 30.8256 73.9482 31.2085 73.771 31.5782C73.6006 31.9333 73.2599 32.1325 72.6655 32.2231C72.4385 32.2578 72.2545 32.2741 72.0858 32.2748L71.2147 32.2779C70.0653 32.2831 68.8768 32.289 67.7113 32.2665C67.3599 32.2599 66.9698 32.187 66.5516 32.0499C66.1468 31.9169 65.8945 31.5865 65.781 31.0388C65.7155 30.7208 65.6816 30.406 65.6802 30.103C65.6734 28.071 65.6744 25.895 65.683 23.4503C65.6847 22.9595 65.7755 22.5614 65.9599 22.233C66.2201 21.7703 66.6541 21.5384 67.2876 21.5242C68.5046 21.4964 69.741 21.4933 70.9491 21.4933C71.1184 21.4933 71.2871 21.4937 71.4547 21.4937H72.2147H72.2164C72.3936 21.4937 72.5815 21.5294 72.7803 21.5666L72.83 21.5759C73.4765 21.6974 73.8526 22.0598 73.9794 22.6846C74.0542 23.0504 74.095 23.4718 74.1049 23.972C74.119 24.687 74.1039 25.9439 74.0905 26.5312L74.0785 26.8783C74.0785 27.2195 74.0806 27.5614 74.083 27.9027ZM76.1754 22.375C75.9166 20.9213 75.0833 19.9629 73.7659 19.6044C73.2208 19.4554 72.599 19.3739 71.8647 19.3541C70.6316 19.3211 69.3784 19.3336 68.1665 19.3461L67.9461 19.3478C67.4683 19.3531 67.0185 19.3895 66.6089 19.4561C65.0759 19.7061 64.1074 20.5204 63.731 21.8776C63.5703 22.4555 63.4805 23.1042 63.4715 23.7533C63.4427 25.7902 63.4537 27.8596 63.4643 29.861L63.465 29.961C63.4671 30.3813 63.5051 30.8281 63.5775 31.2887C63.8294 32.8809 64.7766 33.9021 66.3168 34.2415C66.7803 34.3443 67.2999 34.3974 67.9523 34.4092C68.5124 34.4189 69.0986 34.4241 69.7345 34.4241C70.3262 34.4241 70.9611 34.4196 71.6583 34.4113C72.0944 34.4057 72.6672 34.3877 73.2311 34.2943C74.5067 34.0829 75.399 33.4289 75.8834 32.3501C76.1487 31.7597 76.2872 31.1023 76.294 30.3952C76.3016 29.7028 76.3043 28.6 76.3064 27.8162C76.3071 27.5906 76.3077 27.3917 76.3081 27.2376L76.3132 26.0217C76.316 25.3327 76.3184 24.6197 76.3053 23.9168C76.2975 23.4933 76.2755 22.9349 76.1754 22.375Z" fill="#163D5D"></path><path fill-rule="evenodd" clip-rule="evenodd" d="M102.59 32.2816L101.219 32.2823C100.588 32.2833 100.031 32.284 99.2949 32.2788C98.9854 32.2764 98.6854 32.2566 98.4033 32.2195C97.9813 32.1643 97.6464 31.8477 97.5699 31.4315C97.5106 31.1077 97.4811 30.7456 97.4801 30.3246C97.4743 28.0649 97.475 25.8049 97.4757 23.5449L97.476 21.4702H102.04C102.307 21.4702 102.525 21.2498 102.525 20.9787V19.8267C102.525 19.5559 102.307 19.3355 102.04 19.3355H97.4671V17.2883C97.4671 17.0172 97.2494 16.7971 96.982 16.7971H95.7555C95.4878 16.7971 95.2701 17.0172 95.2701 17.2883V21.4626C95.2697 24.4626 95.2694 26.9927 95.2742 30.3652C95.2749 30.7675 95.3061 31.1996 95.3695 31.6866C95.5453 33.0449 96.3605 33.9533 97.6645 34.2445C98.1078 34.3434 98.5959 34.3989 99.1149 34.4087C99.6014 34.418 100.007 34.4208 100.4 34.4208C100.66 34.4208 100.915 34.4194 101.185 34.4184L102.592 34.4153C102.845 34.4153 103.052 34.2066 103.052 33.9501V32.7488C103.052 32.4912 102.845 32.2816 102.59 32.2816Z" fill="#163D5D"></path><path fill-rule="evenodd" clip-rule="evenodd" d="M107.366 19.356H106.404C106.072 19.356 105.802 19.6295 105.802 19.9662V33.7866C105.802 34.1233 106.072 34.3968 106.404 34.3968H107.366C107.699 34.3968 107.969 34.1233 107.969 33.7866V19.9662C107.969 19.6295 107.699 19.356 107.366 19.356Z" fill="#163D5D"></path><path fill-rule="evenodd" clip-rule="evenodd" d="M106.87 14.9917C105.977 15.0014 105.279 15.7144 105.281 16.6141C105.283 17.5225 105.993 18.2385 106.897 18.2441H106.906C107.321 18.2441 107.715 18.0771 108.018 17.7727C108.328 17.461 108.498 17.0504 108.498 16.6158C108.499 16.1774 108.331 15.7675 108.025 15.4617C107.718 15.1535 107.312 14.9983 106.87 14.9917Z" fill="#163D5D"></path><path fill-rule="evenodd" clip-rule="evenodd" d="M70.6136 25.0029H69.1539C68.7309 25.0029 68.3867 25.3514 68.3867 25.7798V27.9776C68.3867 28.4063 68.7309 28.7548 69.1539 28.7548H70.6136C71.0366 28.7548 71.3808 28.4063 71.3808 27.9776V25.7798C71.3808 25.3514 71.0366 25.0029 70.6136 25.0029Z" fill="#163D5D"></path><mask id="mask1" maskUnits="userSpaceOnUse" x="14" y="0" width="4" height="9"><path d="M14.9102 0H17.8432V8.60084H14.9102V0Z" fill="white"></path></mask><g mask="url(#mask1)"><path fill-rule="evenodd" clip-rule="evenodd" d="M16.0613 2.93316V8.28139C16.0613 8.45772 16.2025 8.60073 16.3767 8.60073C16.5508 8.60073 16.692 8.45772 16.692 8.28139V2.93316C17.3502 2.78668 17.8432 2.19486 17.8432 1.48468C17.8432 0.664814 17.1867 -0.000244141 16.3767 -0.000244141C15.5666 -0.000244141 14.9102 0.664814 14.9102 1.48468C14.9102 2.19486 15.4034 2.78668 16.0613 2.93316Z" fill="#163D5D"></path></g><mask id="mask2" maskUnits="userSpaceOnUse" x="6" y="33" width="21" height="9"><path d="M26.2319 41.3514H6.52734V33.207H26.2319V41.3514Z" fill="white"></path></mask><g mask="url(#mask2)"><path fill-rule="evenodd" clip-rule="evenodd" d="M25.1055 33.207H7.65413C7.03195 33.207 6.52734 33.7176 6.52734 34.3476V40.2106C6.52734 40.8406 7.03195 41.3516 7.65413 41.3516H25.1055C25.7277 41.3516 26.2319 40.8406 26.2319 40.2106V34.3476C26.2319 33.7176 25.7277 33.207 25.1055 33.207Z" fill="#163D5D"></path></g><mask id="mask3" maskUnits="userSpaceOnUse" x="0" y="20" width="33" height="18"><path d="M0 37.0098V20.7339H32.7556V37.0098H0H0Z" fill="white"></path></mask><g mask="url(#mask3)"><path fill-rule="evenodd" clip-rule="evenodd" d="M26.6897 27.2477C25.9006 27.2477 25.2609 26.6 25.2609 25.801C25.2609 25.0019 25.9006 24.3542 26.6897 24.3542C27.4788 24.3542 28.1185 25.0019 28.1185 25.801C28.1185 26.6 27.4788 27.2477 26.6897 27.2477ZM31.6291 20.7339H1.12632C0.504482 20.7339 -0.00012207 21.2445 -0.00012207 21.8745V35.8692C-0.00012207 36.4992 0.504482 37.0098 1.12632 37.0098H4.07716V33.892C4.07716 32.0492 5.55258 30.5553 7.37251 30.5553H25.3833C27.2032 30.5553 28.6786 32.0492 28.6786 33.892V37.0098H31.6291C32.2513 37.0098 32.7556 36.4992 32.7556 35.8692V21.8745C32.7556 21.2445 32.2513 20.7339 31.6291 20.7339Z" fill="#163D5D"></path></g><path fill-rule="evenodd" clip-rule="evenodd" d="M11.9385 12.1489C12.9247 12.1489 13.7245 12.9587 13.7245 13.9573C13.7245 14.956 12.9247 15.7654 11.9385 15.7654C10.9522 15.7654 10.1525 14.956 10.1525 13.9573C10.1525 12.9587 10.9522 12.1489 11.9385 12.1489ZM20.8208 12.1489C21.8074 12.1489 22.6068 12.9587 22.6068 13.9573C22.6068 14.956 21.8074 15.7654 20.8208 15.7654C19.8346 15.7654 19.0351 14.956 19.0351 13.9573C19.0351 12.9587 19.8346 12.1489 20.8208 12.1489ZM7.65379 18.0261H25.1055C25.7277 18.0261 26.2319 17.5155 26.2319 16.8855V11.0288C26.2319 10.3988 25.7277 9.88818 25.1055 9.88818H7.65379C7.03195 9.88818 6.52734 10.3988 6.52734 11.0288V16.8855C6.52734 17.5155 7.03195 18.0261 7.65379 18.0261Z" fill="#163D5D"></path></svg> 